<?xml version="1.0" encoding="UTF-8"?>
<svg id="Layer_1" xmlns="http://www.w3.org/2000/svg" version="1.1" viewBox="0 0 1310.8 240.7">
  <!-- Generator: Adobe Illustrator 29.8.1, SVG Export Plug-In . SVG Version: 2.1.1 Build 2)  -->
  <defs>
    <style>
      .st0 {
        fill: #fff;
      }
    </style>
  </defs>
  <path class="st0" d="M339.9,82l29.5,78.6,29.5-78.6h17v93.5h-11.9v-77.7h-.3l-29.2,77.7h-10.7l-29.2-77.7h-.3v77.7h-11.9v-93.5h17.6Z"/>
  <path class="st0" d="M460.1,106.1c17,0,25.3,6,25.3,18.2v39c0,2.7,1.2,3.9,3.6,3.9s2.4-.3,3.3-.6v8.6c-2.4,1.2-5.4,1.8-8,1.8-6.3,0-9.5-3.6-9.5-10.4-6,6.8-14.6,10.7-23.8,10.4-6,.3-11.6-1.5-16.4-5.1-4.2-3.6-6.3-8.6-6-14-.3-5.4,1.8-10.7,6-14.3,3.9-3.6,13.1-6.3,27.4-8,3.6-.3,6.8-1.2,9.8-2.7,1.8-1.2,2.7-3.3,2.7-5.7,0-7.4-5.1-11-15.2-11-4.5-.3-8.6.9-12.5,3-3,2.4-4.5,6-4.5,9.8h-11c.9-15.5,10.7-22.9,28.9-22.9h0ZM440.5,157.3c0,3,1.2,5.7,3.3,7.4,3,1.8,6.3,3,9.8,2.7,5.4.3,10.4-1.5,14.9-4.5,3.6-2.4,5.7-6.3,6-10.7v-11.6c-2.4,1.5-5.1,2.4-7.7,2.7l-11.3,1.8c-3.9.3-7.7,1.8-11,3.9-2.7,2.1-3.9,5.1-3.9,8.3h0Z"/>
  <path class="st0" d="M535.4,106.1c15.5,0,23.2,8,23.2,24.1v44.9h-11v-46.1c0-3.6-1.2-6.8-3.6-9.5-2.7-2.7-6.5-4.2-10.4-3.9-5.7-.3-11,1.8-14.9,5.7-3.6,4.2-5.4,9.5-5.1,15.2v38.7h-11v-67.6h10.4v10.7h.3c4.5-7.7,13.1-12.5,22-12.2h0Z"/>
  <path class="st0" d="M606.6,106.1c8.6-.3,17,3.3,22.9,9.8,6,7.4,8.9,16.4,8.3,25.9.3,9.2-2.7,18.5-8.3,25.6-5.7,6.5-14,10.1-22.3,9.8-4.2,0-8.3-.9-12.2-2.7s-7.1-4.5-9.5-8h-.3v34.8h-11v-93.8h11v9.2h.3c3-7.1,10.4-10.7,21.1-10.7h0ZM584.2,141.5c-.3,6.8,1.5,13.4,5.7,18.8,3.9,4.8,9.8,7.1,15.8,6.8,6,.3,11.3-2.4,14.9-6.8,3.9-5.7,5.7-12.5,5.4-19.3.3-6.5-1.8-12.8-5.7-18.2-3.9-4.5-9.5-7.1-15.5-6.8-5.7-.3-11.3,2.4-14.9,6.8-4.2,5.4-6,11.9-5.7,18.8h0Z"/>
  <path class="st0" d="M678.3,106.1c8.9-.3,17.9,3,24.1,9.8,11.9,15.2,11.9,36.3,0,51.2-6.3,6.8-14.9,10.4-24.1,9.8-8.9.3-17.6-3-23.8-9.5-6.3-7.1-9.5-16.4-8.9-25.6-.6-9.5,2.7-18.8,8.9-25.9,6.3-6.8,14.9-10.1,23.8-9.8h0ZM657.5,141.5c-.3,6.5,1.8,13.1,6,18.5,7.1,8.3,19.6,9.5,28,2.4.9-.6,1.8-1.5,2.4-2.4,4.2-5.4,6.3-11.9,6-18.5.3-6.5-1.8-13.4-6-18.5-3.6-4.8-9.5-7.4-15.2-7.1-6,0-11.3,2.7-14.9,7.1-4.5,5.4-6.5,11.9-6.3,18.5h0Z"/>
  <path class="st0" d="M727.1,107.6l15.2,55.4h.3l13.7-55.4h12.2l14.3,55.4h0l15.2-55.4h11.6l-21.4,67.6h-11.9l-14-53.9h0l-13.7,53.9h-11.9l-21.7-67.6h12.2Z"/>
  <path class="st0" d="M844.1,106.1c8.6-.3,17.3,3.6,22.6,10.4,5.7,7.7,8.6,17.3,8,27.1v1.2h-50.6v.9c-.3,5.7,1.8,11.3,5.7,15.8,4.2,4.2,9.8,6.3,15.5,6,9.8,0,15.5-4.5,17.6-13.1h11c-.9,6.8-4.5,12.8-9.8,17.3-5.7,4.2-12.2,6-19,6-10.7,0-18.8-3.6-24.1-10.4-5.7-7.1-8.6-16.4-8.3-25.3-.3-9.2,3-18.2,8.9-25,5.7-7.1,14-11,22.6-10.7h0ZM862.8,134.9c-.3-5.1-2.4-10.1-6-13.7-3.6-3.6-8.6-5.7-13.7-5.4-4.8,0-9.5,1.8-13.1,5.1-3.6,3.9-6,8.6-6.3,14h39Z"/>
  <path class="st0" d="M921.8,106.1v11.9c-8.3,0-14.6,2.1-18.5,6.5-3.9,4.5-6,11.3-6,20.5v30.4h-11v-67.6h10.4v14.3h.3c5.1-10.4,12.8-15.8,23.2-15.8h1.5v-.3Z"/>
  <path class="st0" d="M973.2,79.6c9.8-.3,19.3,2.4,27.4,8,7.4,5.7,11.9,14,12.8,23.2h-12.5c-.9-6-4.2-11.6-8.9-15.2-5.4-3.9-12.2-5.7-18.8-5.4-8.9-.3-17.6,3.6-23.2,10.7-6,7.1-8.6,16.7-8.6,28.9-.3,9.5,2.7,19,8.9,26.5,5.7,7.1,14.3,11,23.2,10.7,8,.3,15.8-2.7,21.4-8,5.7-5.4,8.9-13.1,8.6-21.1v-1.5h-29.8v-10.4h41.1v49.1h-7.7l-3.3-11.6c-3.3,4.5-7.7,8-13.1,10.4s-11,3.6-17,3.6c-12.2.3-23.8-4.8-31.8-13.7-8.3-8.9-13.1-21.1-12.8-33.6,0-14.9,3.9-27.1,11.9-36.6,7.1-9.2,18.2-14,32.1-14h0Z"/>
  <path class="st0" d="M1064.9,106.1v11.9c-8.3,0-14.6,2.1-18.5,6.5-3.9,4.5-6,11.3-6,20.5v30.4h-11v-67.6h10.4v14.3h.3c5.1-10.4,12.8-15.8,23.2-15.8h1.5v-.3Z"/>
  <path class="st0" d="M1100.3,106.1c8.9-.3,17.9,3,24.1,9.8,11.9,15.2,11.9,36.3,0,51.2-6.3,6.8-14.9,10.4-24.1,9.8-8.9.3-17.6-3-23.8-9.5-6.3-7.1-9.5-16.4-8.9-25.6-.6-9.5,2.7-18.8,8.9-25.9,6-6.8,14.6-10.1,23.8-9.8h0ZM1079.2,141.5c-.3,6.5,1.8,13.1,6,18.5,7.1,8.3,19.6,9.5,28,2.4.9-.6,1.8-1.5,2.4-2.4,4.2-5.4,6.3-11.9,6-18.5.3-6.5-1.8-13.4-6-18.5-3.6-4.8-9.5-7.4-15.2-7.1-6,0-11.3,2.7-14.9,7.1-4.5,5.4-6.5,11.9-6.3,18.5h0Z"/>
  <path class="st0" d="M1155.1,107.6v46.1c0,3.6,1.2,7.1,3.6,9.5s6.3,3.9,10.1,3.9c5.7.3,11-1.8,14.9-5.7,3.6-4.2,5.4-9.5,5.1-15.2v-38.7h11v67.6h-10.4v-10.7h-.3c-4.2,8-12.8,12.8-22,12.2-15.5,0-23.2-8-23.2-24.1v-45.2h11.3v.3Z"/>
  <path class="st0" d="M1247.7,106.1c8.6-.3,17,3.3,22.9,9.8,6,7.4,8.9,16.4,8.3,25.9.3,9.2-2.7,18.5-8.3,25.6-5.7,6.5-14,10.1-22.3,9.8-4.2,0-8.3-.9-12.2-2.7-3.9-1.8-7.1-4.5-9.5-8h-.3v34.8h-11v-93.8h11v9.2h.3c3-7.1,10.1-10.7,21.1-10.7h0ZM1225.3,141.5c-.3,6.8,1.5,13.4,5.7,18.8,3.9,4.8,9.8,7.1,15.8,6.8,6,.3,11.3-2.4,14.9-6.8,3.9-5.7,5.7-12.5,5.4-19.3.3-6.5-1.8-12.8-5.7-18.2-3.9-4.5-9.5-7.1-15.5-6.8-5.7-.3-11.3,2.4-14.9,6.8-4.2,5.4-6.3,11.9-5.7,18.8h0Z"/>
  <path class="st0" d="M38.1,143.9c-2.4,6.8-10.1,10.4-17,7.7-6.8-2.4-10.4-10.1-7.7-17l26.5-72.9c2.4-6.8,10.1-10.4,17-7.7,6.8,2.4,10.4,10.1,7.7,17l-26.5,72.9h0Z"/>
  <path class="st0" d="M83.3,162.9c-3.3,8.9-13.1,13.4-22,10.1-8.9-3.3-13.4-13.1-10.4-22l36-99.1c3.3-8.9,13.1-13.4,22-10.1s13.4,13.1,10.1,22c0,0-35.7,99.1-35.7,99.1Z"/>
  <path class="st0" d="M140.5,186.4c-4.5,11.9-17.6,18.2-29.5,13.7s-18.2-17.6-13.7-29.5l47.3-130.1c4.5-11.9,17.6-18.2,29.5-13.7s18.2,17.6,13.7,29.5l-47.3,130.1Z"/>
  <path class="st0" d="M212.2,215.6c-5.7,15.8-23.2,24.1-39.3,18.2-15.8-5.7-24.1-23.2-18.2-39.3L216.4,25.1c5.7-15.8,23.2-24.1,39.3-18.2s24.1,23.2,18.2,39.3h0s-61.6,169.3-61.6,169.3Z"/>
  <path class="st0" d="M1278.9,85.8c.6-1.2,1.2-2.4,2.1-3.3.9-.9,2.1-1.5,3.3-2.1,5.1-2.1,11,.3,13.1,5.4.6,1.2.9,2.7.9,3.9s-.3,2.7-.9,3.9c-.6,1.2-1.2,2.4-2.1,3.3-.9.9-2.1,1.5-3.3,2.1-2.4.9-5.4.9-7.7,0-1.2-.6-2.4-1.2-3.3-2.1-.9-.9-1.8-2.1-2.1-3.3-.6-1.2-.9-2.7-.9-3.9s.3-2.7.9-3.9h0ZM1280.4,93.3c.3.9.9,2.1,1.8,2.7.9.9,1.8,1.5,2.7,1.8s2.1.6,3.3.6,2.1-.3,3.3-.6c.9-.3,1.8-.9,2.7-1.8s1.5-1.8,1.8-2.7c.3-1.2.6-2.4.6-3.3s-.3-2.4-.6-3.3c-.9-2.1-2.4-3.6-4.5-4.5-.9-.3-2.1-.6-3.3-.6-2.1,0-4.5.9-6,2.4-.9.9-1.5,1.8-1.8,2.7-.3,1.2-.6,2.1-.6,3.3s.3,2.1.6,3.3ZM1288.7,84.1c1.2,0,2.1.3,3,.9.6.6,1.2,1.5.9,2.4,0,.9-.3,1.8-.9,2.4-.6.6-1.5.9-2.1.9l3.3,5.1h-2.1l-3.3-5.1h-1.8v5.1h-1.8v-11.6h4.8ZM1288.1,89.1h1.2c.3,0,.6,0,.9-.3.3,0,.6-.3.6-.6.3-.3.3-.6.3-1.2s0-.6-.3-.9c0-.3-.3-.3-.6-.6-.3,0-.6-.3-.9-.3h-3.3v3.9h2.1Z"/>
</svg>